<?xml version="1.0" encoding="utf-8"?>
<!-- Generator: Adobe Illustrator 19.0.0, SVG Export Plug-In . SVG Version: 6.00 Build 0)  -->
<svg version="1.1" id="Layer_1" xmlns="http://www.w3.org/2000/svg" xmlns:xlink="http://www.w3.org/1999/xlink" x="0px" y="0px"
	 viewBox="0 0 500 500" style="enable-background:new 0 0 500 500;" xml:space="preserve">
<style type="text/css">
	.st0{fill:#4E8EF7;}
</style>
<g id="XMLID_1_">
	<rect id="XMLID_2_" x="229.8" y="233.6" class="st0" width="2.6" height="49.8"/>
	<path id="XMLID_3_" class="st0" d="M269.9,232.4c-14.9,0-26.2,11.3-26.2,26.1c0,14.9,11.3,26.1,26.2,26.1c15,0,26.2-11.2,26.2-26.1
		C296.1,243.7,284.8,232.4,269.9,232.4z M269.9,282.2c-13.4,0-23.6-10.2-23.6-23.7c0-13.5,10.2-23.7,23.6-23.7
		c13.4,0,23.6,10.2,23.6,23.7C293.5,272.1,283.3,282.2,269.9,282.2z"/>
	<path id="XMLID_6_" class="st0" d="M345.8,237.4c-5.6-4.6-12.4-5-15.9-5c-7.9,0-16.6,3.7-19.7,10.8H310v-9.6h-2.6v49.8h2.6v-28.7
		c0-12.5,7.7-19.9,20.2-19.9c7.5,0,11.6,2.4,14.1,4.7c3.8,3.4,6.1,8.9,6.1,17.6v26.3h2.6v-26.3C353.1,248.2,350.7,241.5,345.8,237.4
		z"/>
	<rect id="XMLID_7_" x="367.6" y="233.6" class="st0" width="2.6" height="49.8"/>
	<path id="XMLID_8_" class="st0" d="M407.7,282.2c-12.7,0-23.6-9.6-23.6-23.7c0-6.8,2.8-13.3,6.9-17c5.2-4.6,9.8-6.7,16.8-6.7
		c9.8,0,18.4,5.5,21.8,14.9h2.9c-3.9-11.8-14.7-17.4-24.8-17.4c-15.1,0-26.2,11.5-26.2,26.2c0,15.5,11.8,26,26.2,26
		c11.8,0,21.2-6.8,24.7-16.9h-2.9C427,275.2,419,282.2,407.7,282.2z"/>
	<circle id="XMLID_9_" class="st0" cx="231.1" cy="218.2" r="2.8"/>
	<circle id="XMLID_10_" class="st0" cx="368.9" cy="218.2" r="2.8"/>
	<circle id="XMLID_11_" class="st0" cx="131.2" cy="250" r="26"/>
	<path id="XMLID_12_" class="st0" d="M184.2,205.9c0-4.9-4-8.9-8.9-8.9c-2.2,0-4.3,0.8-5.9,2.2c-10.7-8-23.9-12.8-38.3-12.8
		c-35.1,0-63.7,28.6-63.7,63.7c0,35.1,28.6,63.7,63.7,63.7s63.7-28.6,63.7-63.7c0-14.3-4.8-27.6-12.8-38.3
		C183.4,210.2,184.2,208.1,184.2,205.9z M131.2,311.5c-33.9,0-61.5-27.6-61.5-61.5s27.6-61.5,61.5-61.5c13.8,0,26.5,4.6,36.8,12.3
		c-1,1.5-1.6,3.2-1.6,5.2c0,4.9,4,8.9,8.9,8.9c1.9,0,3.7-0.6,5.2-1.6c7.7,10.3,12.3,23,12.3,36.8
		C192.7,283.9,165.1,311.5,131.2,311.5z"/>
</g>
</svg>
